HIERARCHY
ROOT Pelvis
{
	OFFSET 0.000000 0.000000 0.000000
	CHANNELS 6 Xposition Yposition Zposition Xrotation Yrotation Zrotation
	JOINT LeftUpLeg_virtual
	{
		OFFSET 0.000000 0.000000 0.000000
		CHANNELS 3 Xrotation Yrotation Zrotation
		JOINT LeftUpLeg
		{
			OFFSET 8.479700 -4.795502 -0.379100
			CHANNELS 3 Xrotation Yrotation Zrotation
			JOINT LeftLeg
			{
				OFFSET 0.024144 -32.555107 0.112900
				CHANNELS 3 Xrotation Yrotation Zrotation
				JOINT LeftFoot
				{
					OFFSET -0.024144 -32.638630 -3.012600
					CHANNELS 3 Xrotation Yrotation Zrotation
					JOINT LeftToeBase
					{
						OFFSET 0.970200 -13.225400 11.864200
						CHANNELS 3 Xrotation Yrotation Zrotation
						End Site
						{
							OFFSET 0 0 0
						}
					}
				}
			}
		}
	}
	JOINT RightUpLeg_virtual
	{
		OFFSET 0.000000 0.000000 0.000000
		CHANNELS 3 Xrotation Yrotation Zrotation
		JOINT RightUpLeg
		{
			OFFSET -8.479700 -4.795502 -0.379100
			CHANNELS 3 Xrotation Yrotation Zrotation
			JOINT RightLeg
			{
				OFFSET -0.023144 -32.555092 0.112900
				CHANNELS 3 Xrotation Yrotation Zrotation
				JOINT RightFoot
				{
					OFFSET 0.023144 -32.638641 -3.012700
					CHANNELS 3 Xrotation Yrotation Zrotation
					JOINT RightToeBase
					{
						OFFSET -0.970200 -13.225400 11.864200
						CHANNELS 3 Xrotation Yrotation Zrotation
						End Site
						{
							OFFSET 0 0 0
						}
					}
				}
			}
		}
	}
	JOINT Hips_virtual
	{
		OFFSET 0.000000 0.000000 0.000000
		CHANNELS 3 Xrotation Yrotation Zrotation
		JOINT Hips
		{
			OFFSET -0.000000 -0.000000 -0.000000
			CHANNELS 3 Xrotation Yrotation Zrotation
			JOINT Spine
			{
				OFFSET 0.000000 7.722000 1.166200
				CHANNELS 3 Xrotation Yrotation Zrotation
				JOINT Spine1
				{
					OFFSET 0.000000 12.024101 0.248800
					CHANNELS 3 Xrotation Yrotation Zrotation
					JOINT Spine2
					{
						OFFSET 0.000000 11.502998 -0.491200
						CHANNELS 3 Xrotation Yrotation Zrotation
						JOINT Neck_virtual
						{
							OFFSET 0.000000 0.000000 0.000000
							CHANNELS 3 Xrotation Yrotation Zrotation
							JOINT Neck
							{
								OFFSET 0.000000 18.430702 -3.123100
								CHANNELS 3 Xrotation Yrotation Zrotation
								JOINT Head
								{
									OFFSET 0.000000 9.051102 1.034000
									CHANNELS 3 Xrotation Yrotation Zrotation
									End Site
									{
										OFFSET 0 0 0
									}
								}
							}
						}
						JOINT LeftShoulder_virtual
						{
							OFFSET 0.000000 0.000000 0.000000
							CHANNELS 3 Xrotation Yrotation Zrotation
							JOINT LeftShoulder
							{
								OFFSET 6.197800 13.665199 -4.064700
								CHANNELS 3 Xrotation Yrotation Zrotation
								JOINT LeftArm
								{
									OFFSET 7.778100 -0.187103 -1.709300
									CHANNELS 3 Xrotation Yrotation Zrotation
									JOINT LeftForeArm
									{
										OFFSET 22.049376 0.000000 0.000000
										CHANNELS 3 Xrotation Yrotation Zrotation
										JOINT LeftHand
										{
											OFFSET 23.009392 0.000000 0.000000
											CHANNELS 3 Xrotation Yrotation Zrotation
											End Site
											{
												OFFSET 0 0 0
											}
										}
									}
								}
							}
						}
						JOINT RightShoulder_virtual
						{
							OFFSET 0.000000 0.000000 0.000000
							CHANNELS 3 Xrotation Yrotation Zrotation
							JOINT RightShoulder
							{
								OFFSET -6.197800 13.665199 -4.064700
								CHANNELS 3 Xrotation Yrotation Zrotation
								JOINT RightArm
								{
									OFFSET -7.778100 -0.187103 -1.709300
									CHANNELS 3 Xrotation Yrotation Zrotation
									JOINT RightForeArm
									{
										OFFSET -22.049376 0.000000 0.000000
										CHANNELS 3 Xrotation Yrotation Zrotation
										JOINT RightHand
										{
											OFFSET -23.009392 0.000000 0.000000
											CHANNELS 3 Xrotation Yrotation Zrotation
											End Site
											{
												OFFSET 0 0 0
											}
										}
									}
								}
							}
						}
					}
				}
			}
		}
	}
}
MOTION
Frames: 5
Frame Time: 0.03333333
-5.295091 88.283905 147.906433 0.000000 0.000000 0.000000 19.866391 8.956777 -0.623658 -23.192321 10.174007 11.805066 51.058591 18.767077 -0.581830 16.234745 -0.911659 5.100355 0.000000 0.000000 0.000000 19.866391 8.956777 -0.623658 -58.612981 -27.328698 -12.473070 41.142061 2.923953 -12.701908 29.822631 2.081305 2.241935 0.000000 0.000000 0.000000 19.866391 8.956777 -0.623658 0.000000 0.000000 0.000000 -2.300467 -0.713227 -0.222479 -4.594412 -1.061328 0.101277 0.000000 0.000000 0.000000 -4.594416 -1.061326 0.101277 -4.837210 3.021062 -5.623375 0.000000 0.000000 0.000000 -4.594416 -1.061326 0.101277 10.044626 0.256262 32.051216 -48.561723 -10.210818 11.799405 -38.609861 -41.548505 -5.423189 0.000000 0.000000 0.000000 -4.594416 -1.061326 0.101277 -8.323181 -24.135438 -40.312688 -89.460363 26.675437 38.968258 -28.899586 50.290867 -7.128686 0.000000 0.000000 0.000000 
-5.335926 86.801956 150.750702 0.000000 0.000000 0.000000 17.729243 9.603920 -0.741832 -22.126770 8.402383 11.414511 49.997893 20.543406 -1.912139 15.445851 -1.368771 4.831470 0.000000 0.000000 0.000000 17.729243 9.603920 -0.741832 -59.705764 -26.829302 -12.590469 43.178837 2.514036 -13.054335 28.924803 1.158967 0.974055 0.000000 0.000000 0.000000 17.729243 9.603920 -0.741832 0.000000 0.000000 0.000000 -2.117984 -0.815689 -0.274825 -4.226089 -1.236034 0.160241 0.000000 0.000000 0.000000 -4.226096 -1.236038 0.160241 -3.390466 3.136790 -5.040335 0.000000 0.000000 0.000000 -4.226096 -1.236038 0.160241 9.560697 1.178740 31.958612 -47.982154 -11.494729 12.850382 -37.736204 -39.139579 -4.480683 0.000000 0.000000 0.000000 -4.226096 -1.236038 0.160241 -8.892190 -24.277769 -41.378242 -86.632685 27.564758 36.099411 -30.016619 48.103619 -7.287925 0.000000 0.000000 0.000000 
-5.344846 85.260269 153.461700 0.000000 0.000000 0.000000 15.553352 10.282853 -0.886573 -22.133571 6.148795 10.854267 50.419288 21.761961 -3.176353 13.898167 -1.867454 3.825025 0.000000 0.000000 0.000000 15.553352 10.282853 -0.886573 -60.814174 -26.335365 -12.611506 45.868573 1.994725 -13.774462 27.578239 0.237025 0.062541 0.000000 0.000000 0.000000 15.553352 10.282853 -0.886573 -0.000001 -0.000001 -0.000000 -1.886291 -0.940214 -0.286679 -3.758564 -1.458368 0.264352 0.000000 0.000000 0.000000 -3.758559 -1.458363 0.264352 -2.312997 3.118226 -4.492906 0.000000 0.000000 0.000000 -3.758559 -1.458363 0.264352 9.718424 1.273663 32.721923 -47.199852 -10.995449 14.448377 -37.509353 -36.402975 -3.708631 0.000000 0.000000 0.000000 -3.758559 -1.458363 0.264352 -8.350551 -23.530587 -42.083186 -83.150108 28.065872 30.864611 -31.664381 45.607482 -6.457764 0.000000 0.000000 0.000000 
-5.348938 84.357384 156.012177 0.000000 0.000000 0.000000 13.425293 10.975111 -1.079029 -22.792365 5.457603 10.040345 49.495642 21.338197 -2.946270 12.756628 -2.228077 2.757269 0.000000 0.000000 0.000000 13.425293 10.975111 -1.079029 -60.543268 -26.242779 -12.715403 46.303618 1.244603 -13.662157 27.065260 0.032740 -1.556497 0.000000 0.000000 0.000000 13.425293 10.975111 -1.079029 0.000000 -0.000001 0.000000 -1.580491 -1.080693 -0.221299 -3.141671 -1.730179 0.476075 0.000000 0.000000 0.000000 -3.141671 -1.730182 0.476075 -2.080886 2.816535 -4.488245 0.000000 0.000000 0.000000 -3.141671 -1.730182 0.476075 10.358788 0.430481 33.938650 -46.303048 -6.882818 15.495944 -38.881842 -37.359499 -3.729794 0.000000 0.000000 0.000000 -3.141671 -1.730182 0.476075 -7.764604 -22.718975 -42.791101 -79.909750 26.708365 26.192519 -32.094717 45.832823 -5.888948 0.000000 0.000000 0.000000 
-5.320068 83.941193 158.425354 0.000000 0.000000 0.000000 11.423087 11.641249 -1.330213 -24.000305 5.476904 9.265958 47.857872 19.738046 -2.141018 11.777873 -2.331429 1.593361 0.000000 0.000000 0.000000 11.423087 11.641249 -1.330213 -59.229891 -26.430348 -12.793877 45.177508 1.118113 -12.937430 27.202108 -0.374286 -3.305371 0.000000 0.000000 0.000000 11.423087 11.641249 -1.330213 0.000000 0.000000 0.000000 -1.345006 -1.232703 -0.162782 -2.665328 -2.036630 0.637363 0.000000 0.000000 0.000000 -2.665336 -2.036634 0.637364 -0.982932 2.569750 -4.265421 0.000000 0.000000 0.000000 -2.665336 -2.036634 0.637364 11.255586 -1.044326 34.818686 -45.524252 -2.444836 17.048992 -40.454773 -38.976990 -4.141859 0.000000 0.000000 0.000000 -2.665336 -2.036634 0.637364 -6.438584 -21.372996 -43.150471 -76.035544 24.047201 21.266783 -32.687759 48.066135 -5.222101 0.000000 0.000000 0.000000 
